# xmcd
#
# Track frame offsets:
#	155
#	18169
#	37764
#	75161
#	94977
#	117210
#	135212
#	151356
#	178713
#	195948
#
# Disc length: 2824 seconds
#
# Revision: 1
# Processed by: cddbd v1.4PL0 Copyright (c) Steve Scherf et al.
# Submitted via: audiograbber 1.81.01
#
DISCID=620b060a
DTITLE=Big Slim's Full House Band - Stoned in Blue
DYEAR=2001
DGENRE=Blues
TTITLE0=Bad Mama Jama
TTITLE1=Crosseyed Cat
TTITLE2=As The Years Go Passin By
TTITLE3=Big Legs, Tight Skirts
TTITLE4=The Same Thing
TTITLE5=Let's All Go
TTITLE6=The Slim Shuffle
TTITLE7=Black Rain Fallin
TTITLE8=Sugarbee
TTITLE9=Shake That Boogie
EXTD=
EXTT0=
EXTT1=
EXTT2=
EXTT3=
EXTT4=
EXTT5=
EXTT6=
EXTT7=
EXTT8=
EXTT9=
PLAYORDER=
